<svg xmlns="http://www.w3.org/2000/svg" id="Isolation_Mode" x="0" y="0" version="1.1" viewBox="13 109.9 158.3 36.2" xml:space="preserve"><path d="M13.2 122.6c0-5.6 1.3-11 7.2-11s7.2 5.4 7.2 11-1.3 11-7.2 11-7.2-5.4-7.2-11zm9.3 0c0-3.9-.3-6.2-2.1-6.2s-2.1 2.3-2.1 6.2c0 3.9.3 6.2 2.1 6.2s2.1-2.3 2.1-6.2zM28.8 133.1v-22.3h5v22.3h-5zM35.1 115.5h5.1V133h-5.1zM46.1 133.1l-5-17.5h5.4l1.8 10.4.3 1.6h.1l.3-1.6 1.8-10.5h5.4L51.3 133h-5.2v.1zM60 125.6c.1 1.6.7 3.7 2.7 3.7 1.2 0 1.8-.7 2.6-1.9l3.3 3a7.8 7.8 0 01-6.3 3.2c-4.8 0-7.2-3.5-7.2-9.1 0-5.7 2.4-9.5 7.2-9.5 5.8 0 6.3 5.6 6.3 9.6v1H60zm4-3.1c0-2.4-.6-3.8-1.9-3.8-1.3 0-1.9 1.4-2.1 3.8h4zM72.6 122.6c0-5.6 1.3-11 7.2-11s7.2 5.4 7.2 11-1.3 11-7.2 11-7.2-5.4-7.2-11zm9.3 0c0-3.9-.3-6.2-2.1-6.2s-2.1 2.3-2.1 6.2c0 3.9.3 6.2 2.1 6.2s2.1-2.3 2.1-6.2zM88.1 115.5h5.1V133h-5.1zM94.3 133.1v-22.3h5.1v22.3h-5.1zM105.3 133.1v-18.4h-3.1v-3.9h11.2v3.9h-3.1v18.4h-5zM114.6 115.5h5.1V133h-5.1zM35.1 110.8h5.1v3.9h-5.1zM88.1 110.8h5.1v3.9h-5.1zM114.6 110.8h5.1v3.9h-5.1zM148.2 125.6c.1 1.6.7 3.6 2.7 3.6 1.2 0 1.8-.7 2.6-1.9l3.3 3a7.8 7.8 0 01-6.3 3.2c-4.8 0-7.2-3.5-7.2-9.1 0-5.7 2.6-9.5 7.3-9.5 5.8 0 6.5 5.6 6.5 9.6v1l-8.9.1zm4-3.1c0-2.4-.6-3.8-1.9-3.8-1.3 0-1.9 1.4-2.1 3.8h4zM167.3 120.8a4 4 0 00-3-1.6c-.9 0-1.4.5-1.4 1 0 2.3 8 1.6 8 7.7 0 3.2-2.2 5.7-6.4 5.7a8.8 8.8 0 01-6.9-3.2l3.2-3.4c1.1 1.4 2.6 2.4 3.9 2.4 1 0 1.3-.6 1.3-1 0-2.4-7.9-2.3-7.9-7.8 0-2.8 2-5.5 6.4-5.5 2.5 0 4.5.9 6.1 2.8l-3.3 2.9zM137.5 114.9c-1.9 0-3.2 1-4 2.5h-.1c-.5-1.5-1.7-2.7-3.9-2.7a4.3 4.3 0 00-4.1 2.7h-.1a5.9 5.9 0 00-.5-1.9h-4.1V133h5.1v-12.2c0-1.3.7-1.9 1.5-1.9s1.6.6 1.6 1.9v12.3h4.6v-12.3c0-1.3 1-1.9 1.8-1.9s1.8.6 1.8 1.9v12.3h4.6v-11.5c.2-4.4-.9-6.7-4.2-6.7z" class="st0"/><g><path d="M87.4 136.9h4.9v1.2h-3.4v2.1h2.9v1.2h-2.9v2.4h3.5v1.2h-5v-8.1zM94.1 136.9h2.2c2.5 0 3.9 1.3 3.9 4s-1.5 4.1-3.8 4.1h-2.2l-.1-8.1zm2 6.9c1.6 0 2.5-.9 2.5-2.9s-.9-2.8-2.5-2.8h-.6v5.7h.6zM101.7 141.5V137h1.4v4.6c0 1.7.7 2.3 1.6 2.3 1 0 1.7-.6 1.7-2.3V137h1.4v4.5c0 2.6-1.2 3.7-3 3.7-1.9-.1-3.1-1.1-3.1-3.7zM109.4 141c0-2.6 1.7-4.2 3.7-4.2 1 0 1.8.5 2.3 1l-.8.9c-.4-.4-.9-.7-1.5-.7-1.3 0-2.3 1.1-2.3 2.9 0 1.8.9 2.9 2.2 2.9.7 0 1.3-.3 1.7-.8l.8.9c-.7.8-1.5 1.2-2.5 1.2-2 0-3.6-1.4-3.6-4.1zM118.5 136.9h1.7l2.6 8.1h-1.5l-.6-2.2H118l-.6 2.2h-1.5l2.6-8.1zm-.2 4.8h2.1l-.3-1-.7-2.7-.7 2.7-.4 1zM124.6 138.1h-2.3v-1.2h6.1v1.2h-2.3v6.9h-1.4l-.1-6.9zM129.7 136.9h1.4v8.1h-1.4v-8.1zM132.8 140.9c0-2.6 1.5-4.1 3.5-4.1 2.1 0 3.6 1.5 3.6 4.1 0 2.6-1.5 4.2-3.6 4.2s-3.5-1.6-3.5-4.2zm5.6 0c0-1.8-.8-2.9-2.1-2.9s-2.1 1.1-2.1 2.9c0 1.8.8 3 2.1 3s2.1-1.2 2.1-3zM141.5 136.9h1.5l2.5 4.5.8 1.7-.2-2.7v-3.5h1.4v8.1H146l-2.5-4.5-.8-1.7.2 2.7v3.5h-1.4v-8.1zM152 136.9h1.4v6.8h3.4v1.3H152v-8.1zM159.8 136.9h1.7l2.6 8.1h-1.5l-.6-2.2h-2.7l-.6 2.2h-1.5l2.6-8.1zm-.2 4.8h2.1l-.3-1-.7-2.7-.7 2.7-.4 1zM165.1 136.9h2.6c1.7 0 2.9.5 2.9 2 0 .8-.4 1.5-1.1 1.7.9.2 1.5.8 1.5 1.9 0 1.6-1.3 2.4-3.1 2.4h-2.8v-8zm2.5 3.4c1.1 0 1.6-.4 1.6-1.1 0-.8-.5-1.1-1.6-1.1h-1v2.2h1zm.1 3.6c1.2 0 1.8-.4 1.8-1.3 0-.8-.6-1.2-1.8-1.2h-1.2v2.6h1.2v-.1z" class="st0"/></g></svg>