<?xml version="1.0" encoding="utf-8"?>
<!-- Generator: Adobe Illustrator 19.1.0, SVG Export Plug-In . SVG Version: 6.00 Build 0)  -->
<svg version="1.1" id="Isolation_Mode" xmlns="http://www.w3.org/2000/svg" xmlns:xlink="http://www.w3.org/1999/xlink" x="0px"
	 y="0px" viewBox="13 109.9 158.3 36.2" style="enable-background:new 13 109.9 158.3 36.2;" xml:space="preserve">
<style type="text/css">
	.st0{fill:#FFFFFF;}
</style>
<g>
	<g>
		<path class="st0" d="M13.2,122.6c0-5.6,1.3-11,7.2-11s7.2,5.4,7.2,11s-1.3,11-7.2,11S13.2,128.2,13.2,122.6z M22.5,122.6
			c0-3.9-0.3-6.2-2.1-6.2c-1.8,0-2.1,2.3-2.1,6.2c0,3.9,0.3,6.2,2.1,6.2C22.2,128.8,22.5,126.5,22.5,122.6z"/>
		<path class="st0" d="M28.8,133.1v-22.3h5v22.3C33.8,133.1,28.8,133.1,28.8,133.1z"/>
		<rect x="35.1" y="115.5" class="st0" width="5.1" height="17.5"/>
		<path class="st0" d="M46.1,133.1l-5-17.5h5.4l1.8,10.4c0.1,0.8,0.3,1.6,0.3,1.6h0.1c0,0,0.2-0.9,0.3-1.6l1.8-10.5h5.4L51.3,133
			h-5.2V133.1z"/>
		<path class="st0" d="M60,125.6c0.1,1.6,0.7,3.7,2.7,3.7c1.2,0,1.8-0.7,2.6-1.9l3.3,3c-1.5,1.8-3.4,3.2-6.3,3.2
			c-4.8,0-7.2-3.5-7.2-9.1c0-5.7,2.4-9.5,7.2-9.5c5.8,0,6.3,5.6,6.3,9.6v1C68.6,125.6,60,125.6,60,125.6z M64,122.5
			c0-2.4-0.6-3.8-1.9-3.8c-1.3,0-1.9,1.4-2.1,3.8H64z"/>
		<path class="st0" d="M72.6,122.6c0-5.6,1.3-11,7.2-11c5.9,0,7.2,5.4,7.2,11s-1.3,11-7.2,11S72.6,128.2,72.6,122.6z M81.9,122.6
			c0-3.9-0.3-6.2-2.1-6.2c-1.8,0-2.1,2.3-2.1,6.2c0,3.9,0.3,6.2,2.1,6.2S81.9,126.5,81.9,122.6z"/>
		<rect x="88.1" y="115.5" class="st0" width="5.1" height="17.5"/>
		<path class="st0" d="M94.3,133.1v-22.3h5.1v22.3C99.4,133.1,94.3,133.1,94.3,133.1z"/>
		<path class="st0" d="M105.3,133.1v-18.4h-3.1v-3.9h11.2v3.9h-3.1v18.4H105.3z"/>
		<rect x="114.6" y="115.5" class="st0" width="5.1" height="17.5"/>
		<rect x="35.1" y="110.8" class="st0" width="5.1" height="3.9"/>
		<rect x="88.1" y="110.8" class="st0" width="5.1" height="3.9"/>
		<rect x="114.6" y="110.8" class="st0" width="5.1" height="3.9"/>
		<path class="st0" d="M148.2,125.6c0.1,1.6,0.7,3.6,2.7,3.6c1.2,0,1.8-0.7,2.6-1.9l3.3,3c-1.5,1.8-3.4,3.2-6.3,3.2
			c-4.8,0-7.2-3.5-7.2-9.1c0-5.7,2.6-9.5,7.3-9.5c5.8,0,6.5,5.6,6.5,9.6v1L148.2,125.6L148.2,125.6z M152.2,122.5
			c0-2.4-0.6-3.8-1.9-3.8c-1.3,0-1.9,1.4-2.1,3.8H152.2z"/>
		<path class="st0" d="M167.3,120.8c-0.5-0.8-1.8-1.6-3-1.6c-0.9,0-1.4,0.5-1.4,1c0,2.3,8,1.6,8,7.7c0,3.2-2.2,5.7-6.4,5.7
			c-3.3,0-5.4-1.5-6.9-3.2l3.2-3.4c1.1,1.4,2.6,2.4,3.9,2.4c1,0,1.3-0.6,1.3-1c0-2.4-7.9-2.3-7.9-7.8c0-2.8,2-5.5,6.4-5.5
			c2.5,0,4.5,0.9,6.1,2.8L167.3,120.8z"/>
		<path class="st0" d="M137.5,114.9c-1.9,0-3.2,1-4,2.5h-0.1c-0.5-1.5-1.7-2.7-3.9-2.7c-2.1,0-3.4,1.2-4.1,2.7h-0.1
			c-0.1-1.1-0.5-1.9-0.5-1.9h-4.1v1.7c0,0.2,0,0.4,0,0.6V133h5.1v-12.2c0-1.3,0.7-1.9,1.5-1.9s1.6,0.6,1.6,1.9v12.3h4.6v-12.3
			c0-1.3,1-1.9,1.8-1.9s1.8,0.6,1.8,1.9v12.3h4.6v-11.5C141.9,117.2,140.8,114.9,137.5,114.9z"/>
	</g>
	<g>
		<path class="st0" d="M87.4,136.9h4.9v1.2h-3.4v2.1h2.9v1.2h-2.9v2.4h3.5v1.2h-5V136.9z"/>
		<path class="st0" d="M94.1,136.9h2.2c2.5,0,3.9,1.3,3.9,4c0,2.7-1.5,4.1-3.8,4.1h-2.2L94.1,136.9L94.1,136.9z M96.1,143.8
			c1.6,0,2.5-0.9,2.5-2.9s-0.9-2.8-2.5-2.8h-0.6v5.7H96.1z"/>
		<path class="st0" d="M101.7,141.5V137h1.4v4.6c0,1.7,0.7,2.3,1.6,2.3c1,0,1.7-0.6,1.7-2.3V137h1.4v4.5c0,2.6-1.2,3.7-3,3.7
			C102.9,145.1,101.7,144.1,101.7,141.5z"/>
		<path class="st0" d="M109.4,141c0-2.6,1.7-4.2,3.7-4.2c1,0,1.8,0.5,2.3,1l-0.8,0.9c-0.4-0.4-0.9-0.7-1.5-0.7
			c-1.3,0-2.3,1.1-2.3,2.9c0,1.8,0.9,2.9,2.2,2.9c0.7,0,1.3-0.3,1.7-0.8l0.8,0.9c-0.7,0.8-1.5,1.2-2.5,1.2
			C111,145.1,109.4,143.7,109.4,141z"/>
		<path class="st0" d="M118.5,136.9h1.7l2.6,8.1h-1.5l-0.6-2.2H118l-0.6,2.2h-1.5L118.5,136.9z M118.3,141.7h2.1l-0.3-1
			c-0.3-0.8-0.5-1.8-0.7-2.7l0,0c-0.2,0.9-0.5,1.8-0.7,2.7L118.3,141.7z"/>
		<path class="st0" d="M124.6,138.1h-2.3v-1.2h6.1v1.2h-2.3v6.9h-1.4L124.6,138.1L124.6,138.1z"/>
		<path class="st0" d="M129.7,136.9h1.4v8.1h-1.4V136.9z"/>
		<path class="st0" d="M132.8,140.9c0-2.6,1.5-4.1,3.5-4.1c2.1,0,3.6,1.5,3.6,4.1c0,2.6-1.5,4.2-3.6,4.2
			C134.2,145.1,132.8,143.5,132.8,140.9z M138.4,140.9c0-1.8-0.8-2.9-2.1-2.9s-2.1,1.1-2.1,2.9c0,1.8,0.8,3,2.1,3
			S138.4,142.7,138.4,140.9z"/>
		<path class="st0" d="M141.5,136.9h1.5l2.5,4.5l0.8,1.7l0,0c-0.1-0.8-0.2-1.8-0.2-2.7v-3.5h1.4v8.1H146l-2.5-4.5l-0.8-1.7l0,0
			c0.1,0.8,0.2,1.8,0.2,2.7v3.5h-1.4V136.9z"/>
		<path class="st0" d="M152,136.9h1.4v6.8h3.4v1.3H152L152,136.9L152,136.9z"/>
		<path class="st0" d="M159.8,136.9h1.7l2.6,8.1h-1.5l-0.6-2.2h-2.7l-0.6,2.2h-1.5L159.8,136.9z M159.6,141.7h2.1l-0.3-1
			c-0.3-0.8-0.5-1.8-0.7-2.7l0,0c-0.2,0.9-0.5,1.8-0.7,2.7L159.6,141.7z"/>
		<path class="st0" d="M165.1,136.9h2.6c1.7,0,2.9,0.5,2.9,2c0,0.8-0.4,1.5-1.1,1.7l0,0c0.9,0.2,1.5,0.8,1.5,1.9
			c0,1.6-1.3,2.4-3.1,2.4h-2.8L165.1,136.9L165.1,136.9z M167.6,140.3c1.1,0,1.6-0.4,1.6-1.1c0-0.8-0.5-1.1-1.6-1.1h-1v2.2H167.6z
			 M167.7,143.9c1.2,0,1.8-0.4,1.8-1.3c0-0.8-0.6-1.2-1.8-1.2h-1.2v2.6h1.2V143.9z"/>
	</g>
</g>
</svg>
